#N canvas 787 102 1115 876 10;
#X msg 8 218 248;
#X obj 8 202 metro 20.8333;
#X floatatom 83 187 7 0 0 0 - - - 0;
#X floatatom 83 62 5 0 0 0 - - - 0;
#X obj 83 46 bendin 11;
#X obj 131 76 >> 7;
#X obj 83 77 & 127;
#X obj 83 93 + 60;
#X obj 83 109 +;
#X obj 131 93 / 100;
#X obj 8 234 midiout;
#X text 35 155 BPM-->;
#X obj 417 102 notein 11;
#X floatatom 417 145 5 0 0 0 - - - 0;
#X text 408 63 beat_position;
#X obj 44 269 bng 16 250 50 0 empty empty empty 0 -8 0 10 #fcfcfc #000000 #000000;
#X floatatom 483 118 5 0 0 0 - - - 0;
#X obj 468 146 ==;
#X msg 302 132 24;
#X msg 302 184 96;
#X msg 302 158 48;
#X msg 302 106 12;
#X text 277 184 4x;
#X text 277 158 2x;
#X text 277 132 1x;
#X text 265 106 0.5x;
#X obj 44 252 metro 1;
#X obj 8 186 tgl 16 0 empty empty empty 0 -8 0 10 #fcfcfc #000000 #000000 0 1;
#X text 253 55 0.125x;
#X msg 302 54 3;
#X msg 302 80 6;
#X text 259 80 0.25x;
#X text 5 4 Mixxx MIDI Clock Patch Takes BPM information from pitch bend turns it into a variable MIDI clock out. Useful for syncing external synths and live remixing;
#X obj 302 210 v ppq;
#X obj 83 155 v bpm;
#X obj 200 77 bng 16 250 50 0 empty empty empty 0 -8 0 10 #fcfcfc #000000 #000000;
#X floatatom 83 132 5 0 0 0 - - - 0;
#X obj 83 171 expr (60000/bpm/ppq);
#X obj 83 235 expr (60000/bpm);
#X obj 8 116 loadbang;
#X msg 47 218 2;
#X obj 64 679 noteout;
#X msg 64 594 16;
#X msg 64 615 17;
#X msg 64 636 18;
#X msg 64 657 19;
#X text 116 476 Max;
#X msg 88 476 127;
#X obj 64 575 bng 19 250 50 0 empty empty empty 0 -10 0 12 #fcfcfc #000000 #000000;
#X msg 103 646 28;
#X msg 161 484 48;
#X obj 88 431 loadbang;
#X obj 161 452 delay 10000;
#X obj 468 474 ctlin 0 20;
#X obj 535 474 ctlin 1 20;
#X obj 602 474 ctlin 2 20;
#X obj 669 474 ctlin 3 20;
#X floatatom 855 484 5 0 0 0 - - - 0;
#X floatatom 906 485 5 0 0 0 - - - 0;
#X obj 844 573 ctlout;
#X msg 433 487 36;
#X obj 649 503 ctlout 3;
#X obj 477 503 ctlout 0;
#X obj 535 503 ctlout 1;
#X obj 593 503 ctlout 2;
#X obj 381 471 loadbang;
#X text 849 374 Reloop Mixtour (Port 4);
#X text 473 398 MIDI Fighter Twister (Port 3);
#X text 4 401 MIDI Fighter Spectra Init (Port 1 from DoRe->MidiHub);
#X obj 855 430 notein 53;
#X obj 854 518 expr if ($f1 == 3 \, 3 \, 0);
#X msg 877 558 36;
#X obj 877 540 bng 16 250 50 0 empty empty empty 0 -8 0 10 #fcfcfc #000000 #000000;
#X connect 0 0 10 0;
#X connect 1 0 0 0;
#X connect 1 0 40 0;
#X connect 2 0 1 1;
#X connect 3 0 5 0;
#X connect 3 0 6 0;
#X connect 3 0 35 0;
#X connect 4 0 3 0;
#X connect 5 0 9 0;
#X connect 6 0 7 0;
#X connect 7 0 8 0;
#X connect 8 0 36 0;
#X connect 9 0 8 1;
#X connect 12 0 13 0;
#X connect 12 1 17 0;
#X connect 16 0 17 1;
#X connect 18 0 33 0;
#X connect 19 0 33 0;
#X connect 20 0 33 0;
#X connect 21 0 33 0;
#X connect 26 0 15 0;
#X connect 27 0 1 0;
#X connect 29 0 33 0;
#X connect 30 0 33 0;
#X connect 35 0 37 0;
#X connect 35 0 38 0;
#X connect 36 0 34 0;
#X connect 37 0 2 0;
#X connect 38 0 26 1;
#X connect 39 0 27 0;
#X connect 39 0 18 0;
#X connect 40 0 10 1;
#X connect 42 0 41 0;
#X connect 43 0 41 0;
#X connect 44 0 41 0;
#X connect 45 0 41 0;
#X connect 47 0 41 1;
#X connect 47 0 48 0;
#X connect 48 0 42 0;
#X connect 48 0 43 0;
#X connect 48 0 44 0;
#X connect 48 0 45 0;
#X connect 48 0 49 0;
#X connect 49 0 41 2;
#X connect 50 0 48 0;
#X connect 50 0 41 1;
#X connect 51 0 47 0;
#X connect 51 0 52 0;
#X connect 52 0 50 0;
#X connect 53 0 62 0;
#X connect 54 0 63 0;
#X connect 55 0 64 0;
#X connect 56 0 61 0;
#X connect 57 0 70 0;
#X connect 58 0 59 0;
#X connect 60 0 61 2;
#X connect 60 0 62 2;
#X connect 60 0 63 2;
#X connect 60 0 64 2;
#X connect 65 0 60 0;
#X connect 69 0 57 0;
#X connect 69 1 58 0;
#X connect 70 0 59 1;
#X connect 70 0 72 0;
#X connect 71 0 59 2;
#X connect 72 0 71 0;
